# 3ds Max Wavefront OBJ Exporter v0.97b - (c)2007 guruware
# File Created: 07.11.2017 20:43:27

mtllib objoliera71117.mtl

#
# object Cylinder012
#

v  -37.4948 18.9092 0.3489
v  -36.7025 18.9092 -0.4434
v  -36.3743 18.9092 0.3489
v  -37.4948 18.9092 -0.7715
v  -38.2871 18.9092 -0.4434
v  -38.6153 18.9092 0.3489
v  -38.0811 18.9092 0.9353
v  -38.2871 18.9092 1.1412
v  -37.4948 18.9092 1.4694
v  -37.7257 18.9092 1.3738
v  -36.9037 18.9092 0.9401
v  -37.2541 18.9092 1.3697
v  -36.7025 18.9092 1.1412
v  -35.9102 18.9092 -1.2356
v  -35.2539 18.9092 0.3489
v  -37.4948 18.9092 -1.8920
v  -39.0794 18.9092 -1.2356
v  -39.7357 18.9092 0.3489
v  -39.0794 18.9092 1.9335
v  -37.8068 18.9092 1.3402
v  -38.1189 18.9092 2.3314
v  -37.0134 18.9092 2.3905
v  -37.4948 18.9092 2.5899
v  -35.9102 18.9092 1.9335
v  -35.1179 18.9092 -2.0279
v  -34.1334 18.9092 0.3489
v  -37.4948 18.9092 -3.0125
v  -39.8717 18.9092 -2.0279
v  -40.8562 18.9092 0.3489
v  -39.8717 18.9092 2.7258
v  -38.4309 18.9092 3.3226
v  -36.7728 18.9092 3.3463
v  -37.4948 18.9092 3.4546
v  -35.1179 18.9092 2.7258
v  -35.1179 18.9866 -2.0279
v  -34.1334 18.9866 0.3489
v  -37.4948 18.9866 -3.0125
v  -39.8717 18.9866 -2.0279
v  -40.8562 18.9866 0.3489
v  -39.8717 18.9866 2.7258
v  -38.4309 18.9866 3.3226
v  -36.7728 18.9866 3.3463
v  -37.4948 18.9866 3.4546
v  -35.1179 18.9866 2.7258
v  -34.1334 23.1218 0.3489
v  -35.1179 22.5412 -1.9559
v  -35.9102 22.9551 -1.1877
v  -35.2539 23.3421 0.3489
v  -37.4948 22.3008 -2.9107
v  -37.4948 22.7948 -1.8241
v  -39.8717 22.5412 -1.9559
v  -39.0794 22.9551 -1.1877
v  -40.8562 23.1218 0.3489
v  -39.7357 23.3421 0.3489
v  -39.8717 23.7023 2.6538
v  -39.0794 23.7292 1.8855
v  -38.4309 23.8481 3.2325
v  -38.1189 23.8263 2.2713
v  -35.1179 23.7023 2.6538
v  -35.9102 23.7292 1.8855
v  -36.7025 23.3013 -0.4194
v  -36.3743 23.4948 0.3489
v  -37.4948 23.2212 -0.7376
v  -38.2871 23.3013 -0.4194
v  -38.6153 23.4948 0.3489
v  -38.2871 23.6883 1.1172
v  -37.8068 23.7369 1.3101
v  -37.4948 23.8895 2.3187
v  -36.8496 23.8242 2.2700
v  -37.1722 23.7359 1.3059
v  -37.4948 23.7685 1.4355
v  -36.7025 23.6883 1.1172
v  -37.4948 23.4948 0.3489
v  -35.1179 21.5106 -1.9734
v  -34.1334 21.9505 0.3489
v  -37.4948 21.3284 -2.9353
v  -39.8717 21.5106 -1.9734
v  -40.8562 21.9505 0.3489
v  -39.8717 22.3904 2.6713
v  -37.4948 22.5180 3.3775
v  -38.1875 22.5195 3.2864
v  -38.1875 18.9866 3.3569
v  -35.1179 22.3904 2.6713
v  -36.5271 22.4984 3.2415
v  -36.5271 18.9866 3.3095
v  -35.1179 22.2780 -1.9613
v  -34.1334 22.8155 0.3489
v  -37.4948 22.0553 -2.9182
v  -39.8717 22.2780 -1.9613
v  -40.8562 22.8155 0.3489
v  -39.8717 23.3531 2.6591
v  -35.1179 23.3531 2.6591
v  -36.5271 23.8449 3.2269
v  -36.5271 23.4851 3.2264
v  -37.9566 18.9092 2.3986
v  -38.1875 18.9092 3.3569
v  -38.4309 23.4880 3.2392
v  -38.4309 22.5008 3.2544
v  -37.1722 18.9092 1.3358
v  -36.8496 18.9092 2.3226
v  -36.5271 18.9092 3.3095
v  -36.7728 22.5172 3.2760
v  -35.0968 -0.0000 2.7470
v  -37.4948 -0.0000 3.7402
v  -39.8928 -0.0000 2.7470
v  -40.8861 -0.0000 0.3489
v  -39.8928 -0.0000 -2.0491
v  -37.4948 -0.0000 -3.0424
v  -35.0968 -0.0000 -2.0491
v  -34.1035 -0.0000 0.3489
v  -35.0968 0.1196 -2.0491
v  -34.1035 0.1196 0.3489
v  -37.4948 0.1196 -3.0424
v  -39.8928 0.1196 -2.0491
v  -40.8861 0.1196 0.3489
v  -39.8928 0.1196 2.7470
v  -37.4948 0.1196 3.7402
v  -35.0968 0.1196 2.7470
v  -35.0968 19.1050 2.7470
v  -34.1035 19.1050 0.3489
v  -35.0968 19.1050 -2.0491
v  -37.4948 19.1050 -3.0424
v  -39.8928 19.1050 -2.0491
v  -40.8861 19.1050 0.3489
v  -39.8928 19.1050 2.7470
v  -37.4948 19.1050 3.7402
v  -35.0968 18.8380 -2.0491
v  -34.1035 18.8380 0.3489
v  -37.4948 18.8380 -3.0424
v  -39.8928 18.8380 -2.0491
v  -40.8861 18.8380 0.3489
v  -39.8928 18.8380 2.7470
v  -37.4948 18.8380 3.7402
v  -35.0968 18.8380 2.7470
v  -35.0968 0.3352 -2.0491
v  -34.1035 0.3352 0.3489
v  -37.4948 0.3352 -3.0424
v  -39.8928 0.3352 -2.0491
v  -40.8861 0.3352 0.3489
v  -39.8928 0.3352 2.7470
v  -37.4948 0.3352 3.7402
v  -35.0968 0.3352 2.7470
v  -35.1080 14.5635 -2.0379
v  -34.1193 14.5635 0.3489
v  -37.4948 14.5635 -3.0266
v  -39.8816 14.5635 -2.0379
v  -40.8703 14.5635 0.3489
v  -39.8816 14.5635 2.7358
v  -37.4948 14.5635 3.7244
v  -35.1080 14.5635 2.7358
v  -35.0968 18.2923 -2.0491
v  -34.1035 18.2923 0.3489
v  -37.4948 18.2923 -3.0424
v  -39.8928 18.2923 -2.0491
v  -40.8861 18.2923 0.3489
v  -39.8928 18.2923 2.7470
v  -37.4948 18.2923 3.7402
v  -35.0968 18.2923 2.7470
v  -35.3647 15.1908 -1.7812
v  -35.3729 15.3120 -1.7730
v  -34.4939 15.3120 0.3489
v  -34.4824 15.1908 0.3489
v  -37.4948 15.1908 -2.6635
v  -37.4948 15.3120 -2.6520
v  -39.6249 15.1908 -1.7812
v  -39.6168 15.3120 -1.7730
v  -40.5072 15.1908 0.3489
v  -40.4957 15.3120 0.3489
v  -39.6249 15.1908 2.4790
v  -39.6168 15.3120 2.4709
v  -37.4948 15.1908 3.3614
v  -37.4948 15.3120 3.3498
v  -35.3647 15.1908 2.4790
v  -35.3729 15.3120 2.4709
v  -35.1117 15.8410 -2.0342
v  -35.1092 15.9807 -2.0366
v  -34.1211 15.9807 0.3489
v  -34.1246 15.8410 0.3489
v  -37.4948 15.8410 -3.0213
v  -37.4948 15.9807 -3.0248
v  -39.8779 15.8410 -2.0342
v  -39.8804 15.9807 -2.0366
v  -40.8650 15.8410 0.3489
v  -40.8685 15.9807 0.3489
v  -39.8779 15.8410 2.7320
v  -39.8804 15.9807 2.7345
v  -37.4948 15.8410 3.7192
v  -37.4948 15.9807 3.7227
v  -35.1117 15.8410 2.7320
v  -35.1092 15.9807 2.7345
v  -35.1084 14.7333 -2.0375
v  -34.1200 14.7333 0.3489
v  -37.4948 14.7333 -3.0259
v  -39.8812 14.7333 -2.0375
v  -40.8697 14.7333 0.3489
v  -39.8812 14.7333 2.7353
v  -37.4948 14.7333 3.7238
v  -35.1084 14.7333 2.7353
# 198 vertices

vn 0.0000 -1.0000 -0.0000
vn 0.5490 -0.6303 -0.5490
vn 0.7764 -0.6302 0.0000
vn -0.0000 -0.6303 -0.7764
vn -0.5490 -0.6303 -0.5490
vn -0.7764 -0.6303 0.0000
vn -0.5490 -0.6303 0.5490
vn -0.1931 -0.6799 0.7075
vn 0.1049 -0.7071 0.6992
vn 0.0032 -0.6761 0.7368
vn 0.5489 -0.6303 0.5490
vn 0.7068 0.0016 -0.7074
vn 1.0000 -0.0000 -0.0000
vn -0.0000 0.0035 -1.0000
vn -0.7068 0.0016 -0.7074
vn -1.0000 -0.0000 0.0000
vn -0.7069 0.0012 0.7073
vn -0.2632 0.0020 0.9647
vn 0.1483 0.0021 0.9889
vn 0.0044 0.0023 1.0000
vn 0.7069 0.0012 0.7073
vn 0.9157 0.3095 -0.2564
vn 0.6049 0.2025 -0.7701
vn 0.2851 0.4781 -0.8307
vn 0.4727 0.5907 -0.6539
vn -0.0000 0.1595 -0.9872
vn 0.0000 0.4432 -0.8964
vn -0.6049 0.2025 -0.7701
vn -0.2851 0.4781 -0.8307
vn -0.9157 0.3095 -0.2564
vn -0.4727 0.5907 -0.6539
vn -0.7583 0.5570 0.3388
vn -0.4168 0.8015 -0.4287
vn -0.5207 0.7419 0.4225
vn -0.3157 0.8733 -0.3711
vn 0.7591 0.5570 0.3370
vn 0.4161 0.8021 -0.4283
vn 0.1625 0.5721 -0.8039
vn 0.2352 0.6455 -0.7266
vn 0.0000 0.5360 -0.8442
vn -0.1625 0.5721 -0.8039
vn -0.2352 0.6455 -0.7266
vn -0.2084 0.7413 -0.6380
vn 0.0750 0.5458 -0.8346
vn 0.0001 0.8421 -0.5393
vn 0.3148 0.8742 -0.3697
vn -0.0706 0.5545 -0.8292
vn 0.0000 0.7855 -0.6188
vn 0.2084 0.7413 -0.6380
vn 0.0000 0.6472 -0.7623
vn 0.7004 0.0028 -0.7137
vn -0.0000 0.0062 -1.0000
vn -0.7004 0.0028 -0.7137
vn -0.7020 0.0022 0.7122
vn 0.0038 0.0047 1.0000
vn -0.1310 0.0042 0.9914
vn -0.1396 0.0021 0.9902
vn 0.7020 0.0022 0.7122
vn 0.2891 0.0037 0.9573
vn 0.2674 0.0020 0.9636
vn 0.6989 0.0028 -0.7153
vn -0.0000 0.0056 -1.0000
vn -0.6989 0.0028 -0.7153
vn -1.0000 0.0000 -0.0000
vn -0.7008 0.0021 0.7134
vn 0.7008 0.0021 0.7134
vn 0.5220 0.7425 0.4198
vn 0.3738 0.0010 0.9275
vn -0.0987 -0.7071 0.7001
vn -0.3748 0.0034 0.9271
vn -0.2859 0.0037 0.9583
vn 0.1959 -0.6807 0.7058
vn 0.1397 0.0042 0.9902
vn 0.5490 -0.6303 0.5490
vn -0.0000 -0.6303 0.7764
vn 0.7764 -0.6303 -0.0000
vn 0.7071 -0.0000 -0.7071
vn -0.0000 0.0000 -1.0000
vn -0.7071 -0.0000 -0.7071
vn -1.0000 0.0000 0.0000
vn -0.7071 -0.0000 0.7071
vn -0.0000 -0.0000 1.0000
vn 0.7071 -0.0000 0.7071
vn 0.5490 0.6303 0.5490
vn 0.7764 0.6303 -0.0000
vn 0.5490 0.6303 -0.5490
vn -0.0000 0.6303 -0.7764
vn -0.5490 0.6303 -0.5490
vn -0.7764 0.6303 0.0000
vn -0.5490 0.6303 0.5490
vn -0.0000 0.6303 0.7764
vn 0.7071 0.0000 -0.7071
vn 1.0000 0.0000 -0.0000
vn -0.7071 0.0000 -0.7071
vn -0.7071 0.0000 0.7071
vn -0.0000 0.0000 1.0000
vn 0.7071 0.0000 0.7071
vn 0.7071 0.0001 -0.7071
vn 1.0000 0.0001 -0.0000
vn -0.0000 0.0001 -1.0000
vn -0.7071 0.0001 -0.7071
vn -1.0000 0.0001 0.0000
vn -0.7071 0.0001 0.7071
vn -0.0000 0.0001 1.0000
vn 0.7071 0.0001 0.7071
vn 0.7071 0.0005 -0.7071
vn 1.0000 0.0005 0.0000
vn -0.0000 0.0005 -1.0000
vn -0.7071 0.0005 -0.7071
vn -1.0000 0.0005 -0.0000
vn -0.7071 0.0005 0.7071
vn 0.0000 0.0005 1.0000
vn 0.7071 0.0005 0.7071
vn 0.7071 -0.0008 -0.7071
vn 1.0000 -0.0008 0.0000
vn 0.0000 -0.0008 -1.0000
vn -0.7071 -0.0008 -0.7071
vn -1.0000 -0.0008 -0.0000
vn -0.7071 -0.0008 0.7071
vn -0.0000 -0.0008 1.0000
vn 0.7071 -0.0008 0.7071
vn 0.7039 0.0957 -0.7039
vn 0.7056 -0.0652 -0.7056
vn 0.9979 -0.0652 -0.0000
vn 0.9954 0.0957 -0.0000
vn -0.0000 0.0957 -0.9954
vn 0.0000 -0.0652 -0.9979
vn -0.7039 0.0957 -0.7039
vn -0.7056 -0.0652 -0.7056
vn -0.9954 0.0957 0.0000
vn -0.9979 -0.0652 -0.0000
vn -0.7039 0.0957 0.7039
vn -0.7056 -0.0652 0.7056
vn -0.0000 0.0957 0.9954
vn 0.0000 -0.0652 0.9979
vn 0.7039 0.0957 0.7039
vn 0.7056 -0.0652 0.7056
vn 0.7051 -0.0754 -0.7051
vn 0.7071 -0.0035 -0.7071
vn 1.0000 -0.0035 -0.0000
vn 0.9972 -0.0754 -0.0000
vn -0.0000 -0.0754 -0.9972
vn -0.0000 -0.0035 -1.0000
vn -0.7051 -0.0754 -0.7051
vn -0.7071 -0.0035 -0.7071
vn -0.9972 -0.0754 -0.0000
vn -1.0000 -0.0035 -0.0000
vn -0.7051 -0.0754 0.7051
vn -0.7071 -0.0035 0.7071
vn 0.0000 -0.0754 0.9972
vn 0.0000 -0.0035 1.0000
vn 0.7051 -0.0754 0.7051
vn 0.7071 -0.0035 0.7071
vn 0.7047 0.0826 -0.7047
vn 0.9966 0.0826 -0.0000
vn -0.0000 0.0826 -0.9966
vn -0.7047 0.0826 -0.7047
vn -0.9966 0.0826 0.0000
vn -0.7047 0.0826 0.7047
vn 0.0000 0.0826 0.9966
vn 0.7047 0.0826 0.7047
# 161 vertex normals

vt 0.5000 0.0000 0.0000
vt 0.8750 0.0000 0.3333
vt 0.7500 0.0000 0.3333
vt 0.0000 0.0000 0.3333
vt -0.1250 0.0000 0.3333
vt 0.1250 0.0000 0.3333
vt 0.2500 0.0000 0.3333
vt 0.4075 0.0000 0.2467
vt 0.3750 0.0000 0.3333
vt 0.5000 0.0000 0.3333
vt 0.4636 0.0000 0.3333
vt 0.5933 0.0000 0.2487
vt 0.5380 0.0000 0.3333
vt 0.6250 0.0000 0.3333
vt 0.8750 0.0000 0.6667
vt 0.7500 0.0000 0.6667
vt 0.0000 0.0000 0.6667
vt -0.1250 0.0000 0.6667
vt 0.1250 0.0000 0.6667
vt 0.2500 0.0000 0.6667
vt 0.3750 0.0000 0.6667
vt 0.4508 0.0000 0.3333
vt 0.4508 0.0000 0.6667
vt 0.5380 0.0000 0.6667
vt 0.5000 0.0000 0.6667
vt 0.6250 0.0000 0.6667
vt 0.8750 0.0000 1.0000
vt 0.7500 0.0000 1.0000
vt 0.0000 0.0000 1.0000
vt -0.1250 0.0000 1.0000
vt 0.1250 0.0000 1.0000
vt 0.2500 0.0000 1.0000
vt 0.3750 0.0000 1.0000
vt 0.4508 0.0000 1.0000
vt 0.5380 0.0000 1.0000
vt 0.5000 0.0000 1.0000
vt 0.6250 0.0000 1.0000
vt 0.8750 0.1372 1.0000
vt 0.7500 0.1372 1.0000
vt 0.0000 0.1372 1.0000
vt -0.1250 0.1372 1.0000
vt 0.1250 0.1372 1.0000
vt 0.2500 0.1372 1.0000
vt 0.3750 0.1372 1.0000
vt 0.4508 0.1372 1.0000
vt 0.5380 0.1372 1.0000
vt 0.5000 0.1372 1.0000
vt 0.6250 0.1372 1.0000
vt 0.7500 1.0000 1.0000
vt 0.8750 1.0000 1.0000
vt 0.8750 1.0000 0.6667
vt 0.7500 1.0000 0.6667
vt -0.1250 1.0000 1.0000
vt 0.0000 1.0000 1.0000
vt 0.0000 1.0000 0.6667
vt -0.1250 1.0000 0.6667
vt 0.1250 1.0000 1.0000
vt 0.1250 1.0000 0.6667
vt 0.2500 1.0000 1.0000
vt 0.2500 1.0000 0.6667
vt 0.3750 1.0000 1.0000
vt 0.3750 1.0000 0.6667
vt 0.4508 1.0000 1.0000
vt 0.4508 1.0000 0.6667
vt 0.6250 1.0000 1.0000
vt 0.6250 1.0000 0.6667
vt 0.8750 1.0000 0.3333
vt 0.7500 1.0000 0.3333
vt 0.0000 1.0000 0.3333
vt -0.1250 1.0000 0.3333
vt 0.1250 1.0000 0.3333
vt 0.2500 1.0000 0.3333
vt 0.3750 1.0000 0.3333
vt 0.4508 1.0000 0.3333
vt 0.5000 1.0000 0.6667
vt 0.5509 1.0000 0.6667
vt 0.5509 1.0000 0.3333
vt 0.5000 1.0000 0.3333
vt 0.6250 1.0000 0.3333
vt 0.5000 1.0000 0.0000
vt 0.8750 0.7909 1.0000
vt 0.7500 0.7909 1.0000
vt 0.0000 0.7909 1.0000
vt -0.1250 0.7909 1.0000
vt 0.1250 0.7909 1.0000
vt 0.2500 0.7909 1.0000
vt 0.3750 0.7909 1.0000
vt 0.5000 0.7909 1.0000
vt 0.4636 0.7909 1.0000
vt 0.4636 0.1372 1.0000
vt 0.6250 0.7909 1.0000
vt 0.5509 0.7909 1.0000
vt 0.5509 0.1372 1.0000
vt 0.8750 0.9361 1.0000
vt 0.7500 0.9361 1.0000
vt 0.0000 0.9361 1.0000
vt -0.1250 0.9361 1.0000
vt 0.1250 0.9361 1.0000
vt 0.2500 0.9361 1.0000
vt 0.3750 0.9361 1.0000
vt 0.6250 0.9361 1.0000
vt 0.5509 1.0000 1.0000
vt 0.5509 0.9361 1.0000
vt 0.4636 0.0000 0.6667
vt 0.4636 0.0000 1.0000
vt 0.4508 0.9361 1.0000
vt 0.4508 0.7909 1.0000
vt 0.5509 0.0000 0.3333
vt 0.5509 0.0000 0.6667
vt 0.5509 0.0000 1.0000
vt 0.5380 0.7909 1.0000
vt 0.1161 0.0000 0.4142
vt 0.8750 0.0132 1.0000
vt 0.7500 0.0132 1.0000
vt 0.0000 0.0132 1.0000
vt -0.1250 0.0132 1.0000
vt 0.1250 0.0132 1.0000
vt 0.2500 0.0132 1.0000
vt 0.3750 0.0132 1.0000
vt 0.5000 0.0132 1.0000
vt 0.6250 0.0132 1.0000
vt 0.7803 1.0000 0.4142
vt 0.5214 1.0000 -0.4142
vt 0.2500 1.0000 -1.0000
vt 0.1250 1.0000 -1.0000
vt 0.2197 1.0000 -0.4142
vt 0.8750 0.9860 1.0000
vt 0.7500 0.9860 1.0000
vt 0.0000 0.9860 1.0000
vt -0.1250 0.9860 1.0000
vt 0.1250 0.9860 1.0000
vt 0.2500 0.9860 1.0000
vt 0.3750 0.9860 1.0000
vt 0.5000 0.9860 1.0000
vt 0.5000 1.0000 1.0000
vt 0.6250 0.9860 1.0000
vt 0.8750 0.0370 1.0000
vt 0.7500 0.0370 1.0000
vt 0.0000 0.0370 1.0000
vt -0.1250 0.0370 1.0000
vt 0.1250 0.0370 1.0000
vt 0.2500 0.0370 1.0000
vt 0.3750 0.0370 1.0000
vt 0.5000 0.0370 1.0000
vt 0.6250 0.0370 1.0000
vt 0.8750 0.0697 1.0000
vt 0.7500 0.0697 1.0000
vt 0.0000 0.0697 1.0000
vt -0.1250 0.0697 1.0000
vt 0.1250 0.0697 1.0000
vt 0.2500 0.0697 1.0000
vt 0.3750 0.0697 1.0000
vt 0.5000 0.0697 1.0000
vt 0.6250 0.0697 1.0000
vt 0.8750 0.9580 1.0000
vt 0.7500 0.9580 1.0000
vt 0.0000 0.9580 1.0000
vt -0.1250 0.9580 1.0000
vt 0.1250 0.9580 1.0000
vt 0.2500 0.9580 1.0000
vt 0.3750 0.9580 1.0000
vt 0.5000 0.9580 1.0000
vt 0.6250 0.9580 1.0000
vt 0.8750 0.8191 1.0000
vt 0.8750 0.8468 1.0000
vt 0.7500 0.8468 1.0000
vt 0.7500 0.8191 1.0000
vt 0.0000 0.8191 1.0000
vt 0.0000 0.8468 1.0000
vt -0.1250 0.8468 1.0000
vt -0.1250 0.8191 1.0000
vt 0.1250 0.8191 1.0000
vt 0.1250 0.8468 1.0000
vt 0.2500 0.8191 1.0000
vt 0.2500 0.8468 1.0000
vt 0.3750 0.8191 1.0000
vt 0.3750 0.8468 1.0000
vt 0.5000 0.8191 1.0000
vt 0.5000 0.8468 1.0000
vt 0.6250 0.8191 1.0000
vt 0.6250 0.8468 1.0000
vt 0.8750 0.9503 1.0000
vt 0.8750 0.9516 1.0000
vt 0.7500 0.9516 1.0000
vt 0.7500 0.9503 1.0000
vt 0.0000 0.9503 1.0000
vt 0.0000 0.9516 1.0000
vt -0.1250 0.9516 1.0000
vt -0.1250 0.9503 1.0000
vt 0.1250 0.9503 1.0000
vt 0.1250 0.9516 1.0000
vt 0.2500 0.9503 1.0000
vt 0.2500 0.9516 1.0000
vt 0.3750 0.9503 1.0000
vt 0.3750 0.9516 1.0000
vt 0.5000 0.9503 1.0000
vt 0.5000 0.9516 1.0000
vt 0.6250 0.9503 1.0000
vt 0.6250 0.9516 1.0000
vt 0.8750 0.0710 1.0000
vt 0.7500 0.0710 1.0000
vt 0.0000 0.0710 1.0000
vt -0.1250 0.0710 1.0000
vt 0.1250 0.0710 1.0000
vt 0.2500 0.0710 1.0000
vt 0.3750 0.0710 1.0000
vt 0.5000 0.0710 1.0000
vt 0.6250 0.0710 1.0000
# 208 texture coords

o Cylinder012
g Cylinder012
usemtl 01___Default
s 1
f 1/1/1 2/2/1 3/3/1 
f 1/1/1 4/4/1 2/5/1 
f 1/1/1 5/6/1 4/4/1 
f 1/1/1 6/7/1 5/6/1 
f 1/1/1 7/8/1 8/9/1 6/7/1 
f 1/1/1 9/10/1 10/11/1 7/8/1 
f 1/1/1 11/12/1 12/13/1 9/10/1 
f 1/1/1 3/3/1 13/14/1 11/12/1 
f 3/3/1 2/2/1 14/15/1 15/16/1 
f 2/5/1 4/4/1 16/17/1 14/18/1 
f 4/4/1 5/6/1 17/19/1 16/17/1 
f 5/6/1 6/7/1 18/20/1 17/19/1 
f 6/7/1 8/9/1 19/21/1 18/20/1 
f 8/9/1 20/22/1 21/23/1 19/21/1 
f 9/10/1 12/13/1 22/24/1 23/25/1 
f 13/14/1 3/3/1 15/16/1 24/26/1 
f 15/16/1 14/15/1 25/27/2 26/28/3 
f 14/18/1 16/17/1 27/29/4 25/30/2 
f 16/17/1 17/19/1 28/31/5 27/29/4 
f 17/19/1 18/20/1 29/32/6 28/31/5 
f 18/20/1 19/21/1 30/33/7 29/32/6 
f 19/21/1 21/23/1 31/34/8 30/33/7 
f 23/25/1 22/24/1 32/35/9 33/36/10 
f 24/26/1 15/16/1 26/28/3 34/37/11 
s 8
f 26/28/3 25/27/2 35/38/12 36/39/13 
f 25/30/2 27/29/4 37/40/14 35/41/12 
f 27/29/4 28/31/5 38/42/15 37/40/14 
f 28/31/5 29/32/6 39/43/16 38/42/15 
f 29/32/6 30/33/7 40/44/17 39/43/16 
f 30/33/7 31/34/8 41/45/18 40/44/17 
f 33/36/10 32/35/9 42/46/19 43/47/20 
f 34/37/11 26/28/3 36/39/13 44/48/21 
s 1
f 45/49/22 46/50/23 47/51/24 48/52/25 
f 46/53/23 49/54/26 50/55/27 47/56/24 
f 49/54/26 51/57/28 52/58/29 50/55/27 
f 51/57/28 53/59/30 54/60/31 52/58/29 
f 53/59/30 55/61/32 56/62/33 54/60/31 
f 55/61/32 57/63/34 58/64/35 56/62/33 
f 59/65/36 45/49/22 48/52/25 60/66/37 
f 48/52/25 47/51/24 61/67/38 62/68/39 
f 47/56/24 50/55/27 63/69/40 61/70/38 
f 50/55/27 52/58/29 64/71/41 63/69/40 
f 52/58/29 54/60/31 65/72/42 64/71/41 
f 54/60/31 56/62/33 66/73/43 65/72/42 
f 56/62/33 58/64/35 67/74/44 66/73/43 
f 68/75/45 69/76/46 70/77/47 71/78/48 
f 60/66/37 48/52/25 62/68/39 72/79/49 
f 73/80/50 62/68/39 61/67/38 
f 73/80/50 61/70/38 63/69/40 
f 73/80/50 63/69/40 64/71/41 
f 73/80/50 64/71/41 65/72/42 
f 73/80/50 65/72/42 66/73/43 
f 73/80/50 66/73/43 67/74/44 71/78/48 
f 73/80/50 71/78/48 70/77/47 72/79/49 
f 73/80/50 72/79/49 62/68/39 
s 8
f 35/38/12 74/81/51 75/82/13 36/39/13 
f 37/40/14 76/83/52 74/84/51 35/41/12 
f 38/42/15 77/85/53 76/83/52 37/40/14 
f 39/43/16 78/86/16 77/85/53 38/42/15 
f 40/44/17 79/87/54 78/86/16 39/43/16 
f 43/47/20 80/88/55 81/89/56 82/90/57 
f 44/48/21 83/91/58 84/92/59 85/93/60 
f 36/39/13 75/82/13 83/91/58 44/48/21 
f 86/94/61 46/50/23 45/49/22 87/95/13 
f 88/96/62 49/54/26 46/53/23 86/97/61 
f 89/98/63 51/57/28 49/54/26 88/96/62 
f 90/99/64 53/59/30 51/57/28 89/98/63 
f 91/100/65 55/61/32 53/59/30 90/99/64 
f 92/101/66 59/65/36 93/102/67 94/103/68 
f 87/95/13 45/49/22 59/65/36 92/101/66 
s 1
f 20/22/1 10/11/1 95/104/1 21/23/1 
f 21/23/1 95/104/1 96/105/69 31/34/8 
s 8
f 31/34/8 96/105/69 82/90/57 41/45/18 
s 1
f 58/64/35 68/75/45 71/78/48 67/74/44 
s 8
f 97/106/70 91/100/65 79/87/54 98/107/71 
f 57/63/34 55/61/32 91/100/65 97/106/70 
s 1
f 99/108/1 13/14/1 24/26/1 100/109/1 
f 100/109/1 24/26/1 34/37/11 101/110/72 
s 8
f 101/110/72 34/37/11 44/48/21 85/93/60 
s 1
f 93/102/67 59/65/36 60/66/37 69/76/46 
f 69/76/46 60/66/37 72/79/49 70/77/47 
s 8
f 74/81/51 86/94/61 87/95/13 75/82/13 
f 76/83/52 88/96/62 86/97/61 74/84/51 
f 77/85/53 89/98/63 88/96/62 76/83/52 
f 78/86/16 90/99/64 89/98/63 77/85/53 
f 79/87/54 91/100/65 90/99/64 78/86/16 
f 83/91/58 92/101/66 94/103/68 84/92/59 
f 75/82/13 87/95/13 92/101/66 83/91/58 
f 79/87/54 40/44/17 41/45/18 98/107/71 
f 80/88/55 43/47/20 42/46/19 102/111/73 
s 1
f 10/11/1 20/22/1 8/9/1 7/8/1 
s 8
f 81/89/56 98/107/71 41/45/18 82/90/57 
s 1
f 10/11/1 9/10/1 23/25/1 95/104/1 
f 95/104/1 23/25/1 33/36/10 96/105/69 
s 8
f 96/105/69 33/36/10 43/47/20 82/90/57 
s 1
f 11/12/1 13/14/1 99/108/1 12/13/1 
f 12/13/1 99/108/1 100/109/1 22/24/1 
f 22/24/1 100/109/1 101/110/72 32/35/9 
s 8
f 32/35/9 101/110/72 85/93/60 42/46/19 
f 42/46/19 85/93/60 84/92/59 102/111/73 
s 1
f 103/37/74 104/36/75 105/33/7 106/32/6 107/31/5 108/29/4 109/30/2 110/112/76 
s 8
f 110/28/76 109/27/2 111/113/77 112/114/13 
f 109/30/2 108/29/4 113/115/78 111/116/77 
f 108/29/4 107/31/5 114/117/79 113/115/78 
f 107/31/5 106/32/6 115/118/80 114/117/79 
f 106/32/6 105/33/7 116/119/81 115/118/80 
f 105/33/7 104/36/75 117/120/82 116/119/81 
f 104/36/75 103/37/74 118/121/83 117/120/82 
f 103/37/74 110/28/76 112/114/13 118/121/83 
s 1
f 119/65/84 120/49/85 121/50/86 122/122/87 123/123/88 124/124/89 125/125/90 126/126/91 
s 8
f 127/127/92 121/50/86 120/49/85 128/128/93 
f 129/129/78 122/54/87 121/53/86 127/130/92 
f 130/131/94 123/57/88 122/54/87 129/129/78 
f 131/132/16 124/59/89 123/57/88 130/131/94 
f 132/133/95 125/61/90 124/59/89 131/132/16 
f 133/134/96 126/135/91 125/61/90 132/133/95 
f 134/136/97 119/65/84 126/135/91 133/134/96 
f 128/128/93 120/49/85 119/65/84 134/136/97 
f 111/113/77 135/137/98 136/138/99 112/114/13 
f 113/115/78 137/139/100 135/140/98 111/116/77 
f 114/117/79 138/141/101 137/139/100 113/115/78 
f 115/118/80 139/142/102 138/141/101 114/117/79 
f 116/119/81 140/143/103 139/142/102 115/118/80 
f 117/120/82 141/144/104 140/143/103 116/119/81 
f 118/121/83 142/145/105 141/144/104 117/120/82 
f 112/114/13 136/138/99 142/145/105 118/121/83 
f 135/137/98 143/146/106 144/147/107 136/138/99 
f 137/139/100 145/148/108 143/149/106 135/140/98 
f 138/141/101 146/150/109 145/148/108 137/139/100 
f 139/142/102 147/151/110 146/150/109 138/141/101 
f 140/143/103 148/152/111 147/151/110 139/142/102 
f 141/144/104 149/153/112 148/152/111 140/143/103 
f 142/145/105 150/154/113 149/153/112 141/144/104 
f 136/138/99 144/147/107 150/154/113 142/145/105 
f 151/155/114 127/127/92 128/128/93 152/156/115 
f 153/157/116 129/129/78 127/130/92 151/158/114 
f 154/159/117 130/131/94 129/129/78 153/157/116 
f 155/160/118 131/132/16 130/131/94 154/159/117 
f 156/161/119 132/133/95 131/132/16 155/160/118 
f 157/162/120 133/134/96 132/133/95 156/161/119 
f 158/163/121 134/136/97 133/134/96 157/162/120 
f 152/156/115 128/128/93 134/136/97 158/163/121 
f 159/164/122 160/165/123 161/166/124 162/167/125 
f 163/168/126 164/169/127 160/170/123 159/171/122 
f 165/172/128 166/173/129 164/169/127 163/168/126 
f 167/174/130 168/175/131 166/173/129 165/172/128 
f 169/176/132 170/177/133 168/175/131 167/174/130 
f 171/178/134 172/179/135 170/177/133 169/176/132 
f 173/180/136 174/181/137 172/179/135 171/178/134 
f 162/167/125 161/166/124 174/181/137 173/180/136 
f 175/182/138 176/183/139 177/184/140 178/185/141 
f 179/186/142 180/187/143 176/188/139 175/189/138 
f 181/190/144 182/191/145 180/187/143 179/186/142 
f 183/192/146 184/193/147 182/191/145 181/190/144 
f 185/194/148 186/195/149 184/193/147 183/192/146 
f 187/196/150 188/197/151 186/195/149 185/194/148 
f 189/198/152 190/199/153 188/197/151 187/196/150 
f 178/185/141 177/184/140 190/199/153 189/198/152 
f 191/200/154 159/164/122 162/167/125 192/201/155 
f 193/202/156 163/168/126 159/171/122 191/203/154 
f 194/204/157 165/172/128 163/168/126 193/202/156 
f 195/205/158 167/174/130 165/172/128 194/204/157 
f 196/206/159 169/176/132 167/174/130 195/205/158 
f 197/207/160 171/178/134 169/176/132 196/206/159 
f 198/208/161 173/180/136 171/178/134 197/207/160 
f 192/201/155 162/167/125 173/180/136 198/208/161 
f 160/165/123 175/182/138 178/185/141 161/166/124 
f 164/169/127 179/186/142 175/189/138 160/170/123 
f 166/173/129 181/190/144 179/186/142 164/169/127 
f 168/175/131 183/192/146 181/190/144 166/173/129 
f 170/177/133 185/194/148 183/192/146 168/175/131 
f 172/179/135 187/196/150 185/194/148 170/177/133 
f 174/181/137 189/198/152 187/196/150 172/179/135 
f 161/166/124 178/185/141 189/198/152 174/181/137 
f 143/146/106 191/200/154 192/201/155 144/147/107 
f 145/148/108 193/202/156 191/203/154 143/149/106 
f 146/150/109 194/204/157 193/202/156 145/148/108 
f 147/151/110 195/205/158 194/204/157 146/150/109 
f 148/152/111 196/206/159 195/205/158 147/151/110 
f 149/153/112 197/207/160 196/206/159 148/152/111 
f 150/154/113 198/208/161 197/207/160 149/153/112 
f 144/147/107 192/201/155 198/208/161 150/154/113 
f 176/183/139 151/155/114 152/156/115 177/184/140 
f 180/187/143 153/157/116 151/158/114 176/188/139 
f 182/191/145 154/159/117 153/157/116 180/187/143 
f 184/193/147 155/160/118 154/159/117 182/191/145 
f 186/195/149 156/161/119 155/160/118 184/193/147 
f 188/197/151 157/162/120 156/161/119 186/195/149 
f 190/199/153 158/163/121 157/162/120 188/197/151 
f 177/184/140 152/156/115 158/163/121 190/199/153 
# 180 polygons - 10 triangles

